<svg width="574" height="148" viewBox="0 0 574 148" fill="none" xmlns="http://www.w3.org/2000/svg">
<path d="M24.732 4.62V30H17.676V19.812H9.072V30H2.016V4.62H9.072V14.16H17.676V4.62H24.732ZM27.6179 19.884C27.6179 17.796 27.9899 15.972 28.7339 14.412C29.5019 12.852 30.5339 11.652 31.8299 10.812C33.1499 9.972 34.6139 9.552 36.2219 9.552C37.6139 9.552 38.8139 9.828 39.8219 10.38C40.8299 10.932 41.6099 11.676 42.1619 12.612V9.804H49.2179V30H42.1619V27.192C41.6099 28.128 40.8179 28.872 39.7859 29.424C38.7779 29.976 37.5899 30.252 36.2219 30.252C34.6139 30.252 33.1499 29.832 31.8299 28.992C30.5339 28.152 29.5019 26.952 28.7339 25.392C27.9899 23.808 27.6179 21.972 27.6179 19.884ZM42.1619 19.884C42.1619 18.588 41.8019 17.568 41.0819 16.824C40.3859 16.08 39.5219 15.708 38.4899 15.708C37.4339 15.708 36.5579 16.08 35.8619 16.824C35.1659 17.544 34.8179 18.564 34.8179 19.884C34.8179 21.18 35.1659 22.212 35.8619 22.98C36.5579 23.724 37.4339 24.096 38.4899 24.096C39.5219 24.096 40.3859 23.724 41.0819 22.98C41.8019 22.236 42.1619 21.204 42.1619 19.884ZM62.9227 23.34L66.7027 9.804H74.2267L67.2787 30H58.4947L51.5467 9.804H59.0707L62.9227 23.34ZM80.1816 7.932C78.9336 7.932 77.9256 7.596 77.1576 6.924C76.4136 6.228 76.0416 5.364 76.0416 4.332C76.0416 3.276 76.4136 2.4 77.1576 1.704C77.9256 1.008 78.9336 0.659998 80.1816 0.659998C81.4056 0.659998 82.3896 1.008 83.1336 1.704C83.9016 2.4 84.2856 3.276 84.2856 4.332C84.2856 5.364 83.9016 6.228 83.1336 6.924C82.3896 7.596 81.4056 7.932 80.1816 7.932ZM83.6736 9.804V30H76.6176V9.804H83.6736ZM100.904 9.624C103.232 9.624 105.08 10.404 106.448 11.964C107.816 13.5 108.5 15.588 108.5 18.228V30H101.444V19.164C101.444 18.012 101.144 17.112 100.544 16.464C99.9438 15.792 99.1398 15.456 98.1318 15.456C97.0758 15.456 96.2478 15.792 95.6478 16.464C95.0478 17.112 94.7478 18.012 94.7478 19.164V30H87.6918V9.804H94.7478V12.684C95.3718 11.772 96.2118 11.04 97.2678 10.488C98.3238 9.912 99.5358 9.624 100.904 9.624ZM119.823 9.552C121.191 9.552 122.379 9.828 123.387 10.38C124.419 10.932 125.211 11.676 125.763 12.612V9.804H132.819V29.784C132.819 31.68 132.459 33.384 131.739 34.896C131.019 36.432 129.891 37.656 128.355 38.568C126.843 39.48 124.923 39.936 122.595 39.936C119.475 39.936 116.979 39.204 115.107 37.74C113.235 36.276 112.167 34.284 111.903 31.764H118.851C118.995 32.412 119.355 32.916 119.931 33.276C120.507 33.636 121.251 33.816 122.163 33.816C124.563 33.816 125.763 32.472 125.763 29.784V27.192C125.211 28.128 124.419 28.872 123.387 29.424C122.379 29.976 121.191 30.252 119.823 30.252C118.215 30.252 116.751 29.832 115.431 28.992C114.135 28.152 113.103 26.952 112.335 25.392C111.591 23.808 111.219 21.972 111.219 19.884C111.219 17.796 111.591 15.972 112.335 14.412C113.103 12.852 114.135 11.652 115.431 10.812C116.751 9.972 118.215 9.552 119.823 9.552ZM125.763 19.884C125.763 18.588 125.403 17.568 124.683 16.824C123.987 16.08 123.123 15.708 122.091 15.708C121.035 15.708 120.159 16.08 119.463 16.824C118.767 17.544 118.419 18.564 118.419 19.884C118.419 21.18 118.767 22.212 119.463 22.98C120.159 23.724 121.035 24.096 122.091 24.096C123.123 24.096 123.987 23.724 124.683 22.98C125.403 22.236 125.763 21.204 125.763 19.884ZM155.647 23.988V30H152.587C147.427 30 144.847 27.444 144.847 22.332V15.672H142.363V9.804H144.847V4.908H151.939V9.804H155.611V15.672H151.939V22.44C151.939 22.992 152.059 23.388 152.299 23.628C152.563 23.868 152.995 23.988 153.595 23.988H155.647ZM165.939 13.368C166.731 12.216 167.691 11.304 168.819 10.632C169.947 9.96 171.159 9.624 172.455 9.624V17.148H170.475C168.939 17.148 167.799 17.448 167.055 18.048C166.311 18.648 165.939 19.692 165.939 21.18V30H158.883V9.804H165.939V13.368ZM184.381 30.252C182.365 30.252 180.553 29.832 178.945 28.992C177.361 28.152 176.113 26.952 175.201 25.392C174.289 23.832 173.833 21.996 173.833 19.884C173.833 17.796 174.289 15.972 175.201 14.412C176.137 12.852 177.397 11.652 178.981 10.812C180.589 9.972 182.401 9.552 184.417 9.552C186.433 9.552 188.233 9.972 189.817 10.812C191.425 11.652 192.685 12.852 193.597 14.412C194.533 15.972 195.001 17.796 195.001 19.884C195.001 21.972 194.533 23.808 193.597 25.392C192.685 26.952 191.425 28.152 189.817 28.992C188.209 29.832 186.397 30.252 184.381 30.252ZM184.381 24.132C185.365 24.132 186.181 23.772 186.829 23.052C187.501 22.308 187.837 21.252 187.837 19.884C187.837 18.516 187.501 17.472 186.829 16.752C186.181 16.032 185.377 15.672 184.417 15.672C183.457 15.672 182.653 16.032 182.005 16.752C181.357 17.472 181.033 18.516 181.033 19.884C181.033 21.276 181.345 22.332 181.969 23.052C182.593 23.772 183.397 24.132 184.381 24.132ZM218.535 9.804V30H211.443V27.12C210.843 28.032 210.015 28.776 208.959 29.352C207.903 29.904 206.691 30.18 205.323 30.18C202.971 30.18 201.111 29.412 199.743 27.876C198.399 26.316 197.727 24.204 197.727 21.54V9.804H204.747V20.64C204.747 21.792 205.047 22.704 205.647 23.376C206.271 24.024 207.087 24.348 208.095 24.348C209.127 24.348 209.943 24.024 210.543 23.376C211.143 22.704 211.443 21.792 211.443 20.64V9.804H218.535ZM229.607 12.612C230.159 11.652 230.939 10.908 231.947 10.38C232.955 9.828 234.143 9.552 235.511 9.552C237.119 9.552 238.571 9.972 239.867 10.812C241.187 11.652 242.219 12.852 242.963 14.412C243.731 15.972 244.115 17.796 244.115 19.884C244.115 21.972 243.731 23.808 242.963 25.392C242.219 26.952 241.187 28.152 239.867 28.992C238.571 29.832 237.119 30.252 235.511 30.252C234.143 30.252 232.955 29.988 231.947 29.46C230.939 28.908 230.159 28.152 229.607 27.192V30H222.551V3.36H229.607V12.612ZM236.951 19.884C236.951 18.564 236.591 17.544 235.871 16.824C235.175 16.08 234.311 15.708 233.279 15.708C232.247 15.708 231.371 16.08 230.651 16.824C229.955 17.568 229.607 18.588 229.607 19.884C229.607 21.204 229.955 22.236 230.651 22.98C231.371 23.724 232.247 24.096 233.279 24.096C234.311 24.096 235.175 23.724 235.871 22.98C236.591 22.212 236.951 21.18 236.951 19.884ZM254.076 3.36V30H247.02V3.36H254.076ZM277.39 19.668C277.39 20.22 277.354 20.772 277.282 21.324H263.926C263.998 22.428 264.298 23.256 264.826 23.808C265.378 24.336 266.074 24.6 266.914 24.6C268.09 24.6 268.93 24.072 269.434 23.016H276.958C276.646 24.408 276.034 25.656 275.122 26.76C274.234 27.84 273.106 28.692 271.738 29.316C270.37 29.94 268.858 30.252 267.202 30.252C265.21 30.252 263.434 29.832 261.874 28.992C260.338 28.152 259.126 26.952 258.238 25.392C257.374 23.832 256.942 21.996 256.942 19.884C256.942 17.772 257.374 15.948 258.238 14.412C259.102 12.852 260.302 11.652 261.838 10.812C263.398 9.972 265.186 9.552 267.202 9.552C269.194 9.552 270.958 9.96 272.494 10.776C274.03 11.592 275.23 12.768 276.094 14.304C276.958 15.816 277.39 17.604 277.39 19.668ZM270.19 17.904C270.19 17.04 269.902 16.368 269.326 15.888C268.75 15.384 268.03 15.132 267.166 15.132C266.302 15.132 265.594 15.372 265.042 15.852C264.49 16.308 264.13 16.992 263.962 17.904H270.19ZM295.772 30.252C293.948 30.252 292.316 29.952 290.876 29.352C289.46 28.728 288.332 27.888 287.492 26.832C286.676 25.752 286.22 24.54 286.124 23.196H292.964C293.06 23.844 293.36 24.348 293.864 24.708C294.368 25.068 294.992 25.248 295.736 25.248C296.312 25.248 296.768 25.128 297.104 24.888C297.44 24.648 297.608 24.336 297.608 23.952C297.608 23.448 297.332 23.076 296.78 22.836C296.228 22.596 295.316 22.332 294.044 22.044C292.604 21.756 291.404 21.432 290.444 21.072C289.484 20.712 288.644 20.124 287.924 19.308C287.228 18.492 286.88 17.388 286.88 15.996C286.88 14.796 287.204 13.716 287.852 12.756C288.5 11.772 289.448 10.992 290.696 10.416C291.968 9.84 293.492 9.552 295.268 9.552C297.908 9.552 299.984 10.2 301.496 11.496C303.008 12.792 303.884 14.496 304.124 16.608H297.752C297.632 15.96 297.344 15.468 296.888 15.132C296.456 14.772 295.868 14.592 295.124 14.592C294.548 14.592 294.104 14.7 293.792 14.916C293.504 15.132 293.36 15.432 293.36 15.816C293.36 16.296 293.636 16.668 294.188 16.932C294.74 17.172 295.628 17.424 296.852 17.688C298.316 18 299.528 18.348 300.488 18.732C301.472 19.116 302.324 19.74 303.044 20.604C303.788 21.444 304.16 22.596 304.16 24.06C304.16 25.236 303.812 26.292 303.116 27.228C302.444 28.164 301.472 28.908 300.2 29.46C298.952 29.988 297.476 30.252 295.772 30.252ZM326.925 19.668C326.925 20.22 326.889 20.772 326.817 21.324H313.461C313.533 22.428 313.833 23.256 314.361 23.808C314.913 24.336 315.609 24.6 316.449 24.6C317.625 24.6 318.465 24.072 318.969 23.016H326.493C326.181 24.408 325.569 25.656 324.657 26.76C323.769 27.84 322.641 28.692 321.273 29.316C319.905 29.94 318.393 30.252 316.737 30.252C314.745 30.252 312.969 29.832 311.409 28.992C309.873 28.152 308.661 26.952 307.773 25.392C306.909 23.832 306.477 21.996 306.477 19.884C306.477 17.772 306.909 15.948 307.773 14.412C308.637 12.852 309.837 11.652 311.373 10.812C312.933 9.972 314.721 9.552 316.737 9.552C318.729 9.552 320.493 9.96 322.029 10.776C323.565 11.592 324.765 12.768 325.629 14.304C326.493 15.816 326.925 17.604 326.925 19.668ZM319.725 17.904C319.725 17.04 319.437 16.368 318.861 15.888C318.285 15.384 317.565 15.132 316.701 15.132C315.837 15.132 315.129 15.372 314.577 15.852C314.025 16.308 313.665 16.992 313.497 17.904H319.725ZM341.729 23.988V30H338.669C333.509 30 330.929 27.444 330.929 22.332V15.672H328.445V9.804H330.929V4.908H338.021V9.804H341.693V15.672H338.021V22.44C338.021 22.992 338.141 23.388 338.381 23.628C338.645 23.868 339.077 23.988 339.677 23.988H341.729ZM356.881 23.988V30H353.821C348.661 30 346.081 27.444 346.081 22.332V15.672H343.597V9.804H346.081V4.908H353.173V9.804H356.845V15.672H353.173V22.44C353.173 22.992 353.293 23.388 353.533 23.628C353.797 23.868 354.229 23.988 354.829 23.988H356.881ZM363.682 7.932C362.434 7.932 361.426 7.596 360.658 6.924C359.914 6.228 359.542 5.364 359.542 4.332C359.542 3.276 359.914 2.4 360.658 1.704C361.426 1.008 362.434 0.659998 363.682 0.659998C364.906 0.659998 365.89 1.008 366.634 1.704C367.402 2.4 367.786 3.276 367.786 4.332C367.786 5.364 367.402 6.228 366.634 6.924C365.89 7.596 364.906 7.932 363.682 7.932ZM367.174 9.804V30H360.118V9.804H367.174ZM384.404 9.624C386.732 9.624 388.58 10.404 389.948 11.964C391.316 13.5 392 15.588 392 18.228V30H384.944V19.164C384.944 18.012 384.644 17.112 384.044 16.464C383.444 15.792 382.64 15.456 381.632 15.456C380.576 15.456 379.748 15.792 379.148 16.464C378.548 17.112 378.248 18.012 378.248 19.164V30H371.192V9.804H378.248V12.684C378.872 11.772 379.712 11.04 380.768 10.488C381.824 9.912 383.036 9.624 384.404 9.624ZM403.323 9.552C404.691 9.552 405.879 9.828 406.887 10.38C407.919 10.932 408.711 11.676 409.263 12.612V9.804H416.319V29.784C416.319 31.68 415.959 33.384 415.239 34.896C414.519 36.432 413.391 37.656 411.855 38.568C410.343 39.48 408.423 39.936 406.095 39.936C402.975 39.936 400.479 39.204 398.607 37.74C396.735 36.276 395.667 34.284 395.403 31.764H402.351C402.495 32.412 402.855 32.916 403.431 33.276C404.007 33.636 404.751 33.816 405.663 33.816C408.063 33.816 409.263 32.472 409.263 29.784V27.192C408.711 28.128 407.919 28.872 406.887 29.424C405.879 29.976 404.691 30.252 403.323 30.252C401.715 30.252 400.251 29.832 398.931 28.992C397.635 28.152 396.603 26.952 395.835 25.392C395.091 23.808 394.719 21.972 394.719 19.884C394.719 17.796 395.091 15.972 395.835 14.412C396.603 12.852 397.635 11.652 398.931 10.812C400.251 9.972 401.715 9.552 403.323 9.552ZM409.263 19.884C409.263 18.588 408.903 17.568 408.183 16.824C407.487 16.08 406.623 15.708 405.591 15.708C404.535 15.708 403.659 16.08 402.963 16.824C402.267 17.544 401.919 18.564 401.919 19.884C401.919 21.18 402.267 22.212 402.963 22.98C403.659 23.724 404.535 24.096 405.591 24.096C406.623 24.096 407.487 23.724 408.183 22.98C408.903 22.236 409.263 21.204 409.263 19.884ZM447.895 9.804V30H440.803V27.12C440.203 28.032 439.375 28.776 438.319 29.352C437.263 29.904 436.051 30.18 434.683 30.18C432.331 30.18 430.471 29.412 429.103 27.876C427.759 26.316 427.087 24.204 427.087 21.54V9.804H434.107V20.64C434.107 21.792 434.407 22.704 435.007 23.376C435.631 24.024 436.447 24.348 437.455 24.348C438.487 24.348 439.303 24.024 439.903 23.376C440.503 22.704 440.803 21.792 440.803 20.64V9.804H447.895ZM458.967 12.612C459.519 11.676 460.299 10.932 461.307 10.38C462.315 9.828 463.503 9.552 464.871 9.552C466.479 9.552 467.931 9.972 469.227 10.812C470.547 11.652 471.579 12.852 472.323 14.412C473.091 15.972 473.475 17.796 473.475 19.884C473.475 21.972 473.091 23.808 472.323 25.392C471.579 26.952 470.547 28.152 469.227 28.992C467.931 29.832 466.479 30.252 464.871 30.252C463.503 30.252 462.315 29.976 461.307 29.424C460.323 28.872 459.543 28.128 458.967 27.192V39.648H451.911V9.804H458.967V12.612ZM466.311 19.884C466.311 18.564 465.951 17.544 465.231 16.824C464.535 16.08 463.671 15.708 462.639 15.708C461.607 15.708 460.731 16.08 460.011 16.824C459.315 17.568 458.967 18.588 458.967 19.884C458.967 21.204 459.315 22.236 460.011 22.98C460.731 23.724 461.607 24.096 462.639 24.096C463.671 24.096 464.535 23.724 465.231 22.98C465.951 22.212 466.311 21.18 466.311 19.884ZM490.722 9.552C492.09 9.552 493.278 9.828 494.286 10.38C495.318 10.932 496.11 11.676 496.662 12.612V9.804H503.718V29.784C503.718 31.68 503.358 33.384 502.638 34.896C501.918 36.432 500.79 37.656 499.254 38.568C497.742 39.48 495.822 39.936 493.494 39.936C490.374 39.936 487.878 39.204 486.006 37.74C484.134 36.276 483.066 34.284 482.802 31.764H489.75C489.894 32.412 490.254 32.916 490.83 33.276C491.406 33.636 492.15 33.816 493.062 33.816C495.462 33.816 496.662 32.472 496.662 29.784V27.192C496.11 28.128 495.318 28.872 494.286 29.424C493.278 29.976 492.09 30.252 490.722 30.252C489.114 30.252 487.65 29.832 486.33 28.992C485.034 28.152 484.002 26.952 483.234 25.392C482.49 23.808 482.118 21.972 482.118 19.884C482.118 17.796 482.49 15.972 483.234 14.412C484.002 12.852 485.034 11.652 486.33 10.812C487.65 9.972 489.114 9.552 490.722 9.552ZM496.662 19.884C496.662 18.588 496.302 17.568 495.582 16.824C494.886 16.08 494.022 15.708 492.99 15.708C491.934 15.708 491.058 16.08 490.362 16.824C489.666 17.544 489.318 18.564 489.318 19.884C489.318 21.18 489.666 22.212 490.362 22.98C491.058 23.724 491.934 24.096 492.99 24.096C494.022 24.096 494.886 23.724 495.582 22.98C496.302 22.236 496.662 21.204 496.662 19.884ZM517.135 30.252C515.119 30.252 513.307 29.832 511.699 28.992C510.115 28.152 508.867 26.952 507.955 25.392C507.043 23.832 506.587 21.996 506.587 19.884C506.587 17.796 507.043 15.972 507.955 14.412C508.891 12.852 510.151 11.652 511.735 10.812C513.343 9.972 515.155 9.552 517.171 9.552C519.187 9.552 520.987 9.972 522.571 10.812C524.179 11.652 525.439 12.852 526.351 14.412C527.287 15.972 527.755 17.796 527.755 19.884C527.755 21.972 527.287 23.808 526.351 25.392C525.439 26.952 524.179 28.152 522.571 28.992C520.963 29.832 519.151 30.252 517.135 30.252ZM517.135 24.132C518.119 24.132 518.935 23.772 519.583 23.052C520.255 22.308 520.591 21.252 520.591 19.884C520.591 18.516 520.255 17.472 519.583 16.752C518.935 16.032 518.131 15.672 517.171 15.672C516.211 15.672 515.407 16.032 514.759 16.752C514.111 17.472 513.787 18.516 513.787 19.884C513.787 21.276 514.099 22.332 514.723 23.052C515.347 23.772 516.151 24.132 517.135 24.132ZM540.021 30.252C538.005 30.252 536.193 29.832 534.585 28.992C533.001 28.152 531.753 26.952 530.841 25.392C529.929 23.832 529.473 21.996 529.473 19.884C529.473 17.796 529.929 15.972 530.841 14.412C531.777 12.852 533.037 11.652 534.621 10.812C536.229 9.972 538.041 9.552 540.057 9.552C542.073 9.552 543.873 9.972 545.457 10.812C547.065 11.652 548.325 12.852 549.237 14.412C550.173 15.972 550.641 17.796 550.641 19.884C550.641 21.972 550.173 23.808 549.237 25.392C548.325 26.952 547.065 28.152 545.457 28.992C543.849 29.832 542.037 30.252 540.021 30.252ZM540.021 24.132C541.005 24.132 541.821 23.772 542.469 23.052C543.141 22.308 543.477 21.252 543.477 19.884C543.477 18.516 543.141 17.472 542.469 16.752C541.821 16.032 541.017 15.672 540.057 15.672C539.097 15.672 538.293 16.032 537.645 16.752C536.997 17.472 536.673 18.516 536.673 19.884C536.673 21.276 536.985 22.332 537.609 23.052C538.233 23.772 539.037 24.132 540.021 24.132ZM552.36 19.884C552.36 17.796 552.732 15.972 553.476 14.412C554.244 12.852 555.288 11.652 556.608 10.812C557.928 9.972 559.392 9.552 561 9.552C562.296 9.552 563.448 9.828 564.456 10.38C565.488 10.908 566.292 11.64 566.868 12.576V3.36H573.96V30H566.868V27.192C566.316 28.128 565.536 28.872 564.528 29.424C563.52 29.976 562.332 30.252 560.964 30.252C559.356 30.252 557.892 29.832 556.572 28.992C555.276 28.152 554.244 26.952 553.476 25.392C552.732 23.808 552.36 21.972 552.36 19.884ZM566.904 19.884C566.904 18.588 566.544 17.568 565.824 16.824C565.128 16.08 564.264 15.708 563.232 15.708C562.176 15.708 561.3 16.08 560.604 16.824C559.908 17.544 559.56 18.564 559.56 19.884C559.56 21.18 559.908 22.212 560.604 22.98C561.3 23.724 562.176 24.096 563.232 24.096C564.264 24.096 565.128 23.724 565.824 22.98C566.544 22.236 566.904 21.204 566.904 19.884ZM31.86 63.804L26.712 84H18.792L15.984 71.76L13.068 84H5.184L0.072 63.804H7.092L9.36 77.196L12.348 63.804H19.908L23.004 77.232L25.236 63.804H31.86ZM43.2636 84.252C41.2476 84.252 39.4356 83.832 37.8276 82.992C36.2436 82.152 34.9956 80.952 34.0836 79.392C33.1716 77.832 32.7156 75.996 32.7156 73.884C32.7156 71.796 33.1716 69.972 34.0836 68.412C35.0196 66.852 36.2796 65.652 37.8636 64.812C39.4716 63.972 41.2836 63.552 43.2996 63.552C45.3156 63.552 47.1156 63.972 48.6996 64.812C50.3076 65.652 51.5676 66.852 52.4796 68.412C53.4156 69.972 53.8836 71.796 53.8836 73.884C53.8836 75.972 53.4156 77.808 52.4796 79.392C51.5676 80.952 50.3076 82.152 48.6996 82.992C47.0916 83.832 45.2796 84.252 43.2636 84.252ZM43.2636 78.132C44.2476 78.132 45.0636 77.772 45.7116 77.052C46.3836 76.308 46.7196 75.252 46.7196 73.884C46.7196 72.516 46.3836 71.472 45.7116 70.752C45.0636 70.032 44.2596 69.672 43.2996 69.672C42.3396 69.672 41.5356 70.032 40.8876 70.752C40.2396 71.472 39.9156 72.516 39.9156 73.884C39.9156 75.276 40.2276 76.332 40.8516 77.052C41.4756 77.772 42.2796 78.132 43.2636 78.132ZM63.8103 67.368C64.6023 66.216 65.5623 65.304 66.6903 64.632C67.8183 63.96 69.0303 63.624 70.3263 63.624V71.148H68.3463C66.8103 71.148 65.6703 71.448 64.9263 72.048C64.1823 72.648 63.8103 73.692 63.8103 75.18V84H56.7543V63.804H63.8103V67.368ZM85.4918 84L79.9118 75.72V84H72.8558V57.36H79.9118V71.724L85.4918 63.804H93.9518L85.9958 73.956L94.0958 84H85.4918ZM105.56 84.252C103.544 84.252 101.732 83.832 100.124 82.992C98.5404 82.152 97.2924 80.952 96.3804 79.392C95.4684 77.832 95.0124 75.996 95.0124 73.884C95.0124 71.796 95.4684 69.972 96.3804 68.412C97.3164 66.852 98.5764 65.652 100.16 64.812C101.768 63.972 103.58 63.552 105.596 63.552C107.612 63.552 109.412 63.972 110.996 64.812C112.604 65.652 113.864 66.852 114.776 68.412C115.712 69.972 116.18 71.796 116.18 73.884C116.18 75.972 115.712 77.808 114.776 79.392C113.864 80.952 112.604 82.152 110.996 82.992C109.388 83.832 107.576 84.252 105.56 84.252ZM105.56 78.132C106.544 78.132 107.36 77.772 108.008 77.052C108.68 76.308 109.016 75.252 109.016 73.884C109.016 72.516 108.68 71.472 108.008 70.752C107.36 70.032 106.556 69.672 105.596 69.672C104.636 69.672 103.832 70.032 103.184 70.752C102.536 71.472 102.212 72.516 102.212 73.884C102.212 75.276 102.524 76.332 103.148 77.052C103.772 77.772 104.576 78.132 105.56 78.132ZM139.715 63.804V84H132.623V81.12C132.023 82.032 131.195 82.776 130.139 83.352C129.083 83.904 127.871 84.18 126.503 84.18C124.151 84.18 122.291 83.412 120.923 81.876C119.579 80.316 118.907 78.204 118.907 75.54V63.804H125.927V74.64C125.927 75.792 126.227 76.704 126.827 77.376C127.451 78.024 128.267 78.348 129.275 78.348C130.307 78.348 131.123 78.024 131.723 77.376C132.323 76.704 132.623 75.792 132.623 74.64V63.804H139.715ZM155.647 77.988V84H152.587C147.427 84 144.847 81.444 144.847 76.332V69.672H142.363V63.804H144.847V58.908H151.939V63.804H155.611V69.672H151.939V76.44C151.939 76.992 152.059 77.388 152.299 77.628C152.563 77.868 152.995 77.988 153.595 77.988H155.647ZM167.487 84.252C165.663 84.252 164.031 83.952 162.591 83.352C161.175 82.728 160.047 81.888 159.207 80.832C158.391 79.752 157.935 78.54 157.839 77.196H164.679C164.775 77.844 165.075 78.348 165.579 78.708C166.083 79.068 166.707 79.248 167.451 79.248C168.027 79.248 168.483 79.128 168.819 78.888C169.155 78.648 169.323 78.336 169.323 77.952C169.323 77.448 169.047 77.076 168.495 76.836C167.943 76.596 167.031 76.332 165.759 76.044C164.319 75.756 163.119 75.432 162.159 75.072C161.199 74.712 160.359 74.124 159.639 73.308C158.943 72.492 158.595 71.388 158.595 69.996C158.595 68.796 158.919 67.716 159.567 66.756C160.215 65.772 161.163 64.992 162.411 64.416C163.683 63.84 165.207 63.552 166.983 63.552C169.623 63.552 171.699 64.2 173.211 65.496C174.723 66.792 175.599 68.496 175.839 70.608H169.467C169.347 69.96 169.059 69.468 168.603 69.132C168.171 68.772 167.583 68.592 166.839 68.592C166.263 68.592 165.819 68.7 165.507 68.916C165.219 69.132 165.075 69.432 165.075 69.816C165.075 70.296 165.351 70.668 165.903 70.932C166.455 71.172 167.343 71.424 168.567 71.688C170.031 72 171.243 72.348 172.203 72.732C173.187 73.116 174.039 73.74 174.759 74.604C175.503 75.444 175.875 76.596 175.875 78.06C175.875 79.236 175.527 80.292 174.831 81.228C174.159 82.164 173.187 82.908 171.915 83.46C170.667 83.988 169.191 84.252 167.487 84.252ZM197.143 69.672H193.975V84H186.883V69.672H184.687V63.804H186.883V63.624C186.883 61.032 187.639 59.052 189.151 57.684C190.687 56.292 192.883 55.596 195.739 55.596C196.315 55.596 196.759 55.608 197.071 55.632V61.644C196.879 61.62 196.615 61.608 196.279 61.608C195.511 61.608 194.947 61.788 194.587 62.148C194.227 62.484 194.023 63.036 193.975 63.804H197.143V69.672ZM209.06 84.252C207.044 84.252 205.232 83.832 203.624 82.992C202.04 82.152 200.792 80.952 199.88 79.392C198.968 77.832 198.512 75.996 198.512 73.884C198.512 71.796 198.968 69.972 199.88 68.412C200.816 66.852 202.076 65.652 203.66 64.812C205.268 63.972 207.08 63.552 209.096 63.552C211.112 63.552 212.912 63.972 214.496 64.812C216.104 65.652 217.364 66.852 218.276 68.412C219.212 69.972 219.68 71.796 219.68 73.884C219.68 75.972 219.212 77.808 218.276 79.392C217.364 80.952 216.104 82.152 214.496 82.992C212.888 83.832 211.076 84.252 209.06 84.252ZM209.06 78.132C210.044 78.132 210.86 77.772 211.508 77.052C212.18 76.308 212.516 75.252 212.516 73.884C212.516 72.516 212.18 71.472 211.508 70.752C210.86 70.032 210.056 69.672 209.096 69.672C208.136 69.672 207.332 70.032 206.684 70.752C206.036 71.472 205.712 72.516 205.712 73.884C205.712 75.276 206.024 76.332 206.648 77.052C207.272 77.772 208.076 78.132 209.06 78.132ZM229.607 67.368C230.399 66.216 231.359 65.304 232.487 64.632C233.615 63.96 234.827 63.624 236.123 63.624V71.148H234.143C232.607 71.148 231.467 71.448 230.723 72.048C229.979 72.648 229.607 73.692 229.607 75.18V84H222.551V63.804H229.607V67.368ZM267.287 63.804L254.471 93.612H246.803L251.627 83.136L243.347 63.804H251.195L255.443 75.252L259.547 63.804H267.287ZM278.529 84.252C276.513 84.252 274.701 83.832 273.093 82.992C271.509 82.152 270.261 80.952 269.349 79.392C268.437 77.832 267.981 75.996 267.981 73.884C267.981 71.796 268.437 69.972 269.349 68.412C270.285 66.852 271.545 65.652 273.129 64.812C274.737 63.972 276.549 63.552 278.565 63.552C280.581 63.552 282.381 63.972 283.965 64.812C285.573 65.652 286.833 66.852 287.745 68.412C288.681 69.972 289.149 71.796 289.149 73.884C289.149 75.972 288.681 77.808 287.745 79.392C286.833 80.952 285.573 82.152 283.965 82.992C282.357 83.832 280.545 84.252 278.529 84.252ZM278.529 78.132C279.513 78.132 280.329 77.772 280.977 77.052C281.649 76.308 281.985 75.252 281.985 73.884C281.985 72.516 281.649 71.472 280.977 70.752C280.329 70.032 279.525 69.672 278.565 69.672C277.605 69.672 276.801 70.032 276.153 70.752C275.505 71.472 275.181 72.516 275.181 73.884C275.181 75.276 275.493 76.332 276.117 77.052C276.741 77.772 277.545 78.132 278.529 78.132ZM312.684 63.804V84H305.592V81.12C304.992 82.032 304.164 82.776 303.108 83.352C302.052 83.904 300.84 84.18 299.472 84.18C297.12 84.18 295.26 83.412 293.892 81.876C292.548 80.316 291.876 78.204 291.876 75.54V63.804H298.896V74.64C298.896 75.792 299.196 76.704 299.796 77.376C300.42 78.024 301.236 78.348 302.244 78.348C303.276 78.348 304.092 78.024 304.692 77.376C305.292 76.704 305.592 75.792 305.592 74.64V63.804H312.684ZM323.756 67.368C324.548 66.216 325.508 65.304 326.636 64.632C327.764 63.96 328.976 63.624 330.272 63.624V71.148H328.292C326.756 71.148 325.616 71.448 324.872 72.048C324.128 72.648 323.756 73.692 323.756 75.18V84H316.7V63.804H323.756V67.368ZM341.405 84.252C339.581 84.252 337.949 83.952 336.509 83.352C335.093 82.728 333.965 81.888 333.125 80.832C332.309 79.752 331.853 78.54 331.757 77.196H338.597C338.693 77.844 338.993 78.348 339.497 78.708C340.001 79.068 340.625 79.248 341.369 79.248C341.945 79.248 342.401 79.128 342.737 78.888C343.073 78.648 343.241 78.336 343.241 77.952C343.241 77.448 342.965 77.076 342.413 76.836C341.861 76.596 340.949 76.332 339.677 76.044C338.237 75.756 337.037 75.432 336.077 75.072C335.117 74.712 334.277 74.124 333.557 73.308C332.861 72.492 332.513 71.388 332.513 69.996C332.513 68.796 332.837 67.716 333.485 66.756C334.133 65.772 335.081 64.992 336.329 64.416C337.601 63.84 339.125 63.552 340.901 63.552C343.541 63.552 345.617 64.2 347.129 65.496C348.641 66.792 349.517 68.496 349.757 70.608H343.385C343.265 69.96 342.977 69.468 342.521 69.132C342.089 68.772 341.501 68.592 340.757 68.592C340.181 68.592 339.737 68.7 339.425 68.916C339.137 69.132 338.993 69.432 338.993 69.816C338.993 70.296 339.269 70.668 339.821 70.932C340.373 71.172 341.261 71.424 342.485 71.688C343.949 72 345.161 72.348 346.121 72.732C347.105 73.116 347.957 73.74 348.677 74.604C349.421 75.444 349.793 76.596 349.793 78.06C349.793 79.236 349.445 80.292 348.749 81.228C348.077 82.164 347.105 82.908 345.833 83.46C344.585 83.988 343.109 84.252 341.405 84.252ZM372.558 73.668C372.558 74.22 372.522 74.772 372.45 75.324H359.094C359.166 76.428 359.466 77.256 359.994 77.808C360.546 78.336 361.242 78.6 362.082 78.6C363.258 78.6 364.098 78.072 364.602 77.016H372.126C371.814 78.408 371.202 79.656 370.29 80.76C369.402 81.84 368.274 82.692 366.906 83.316C365.538 83.94 364.026 84.252 362.37 84.252C360.378 84.252 358.602 83.832 357.042 82.992C355.506 82.152 354.294 80.952 353.406 79.392C352.542 77.832 352.11 75.996 352.11 73.884C352.11 71.772 352.542 69.948 353.406 68.412C354.27 66.852 355.47 65.652 357.006 64.812C358.566 63.972 360.354 63.552 362.37 63.552C364.362 63.552 366.126 63.96 367.662 64.776C369.198 65.592 370.398 66.768 371.262 68.304C372.126 69.816 372.558 71.604 372.558 73.668ZM365.358 71.904C365.358 71.04 365.07 70.368 364.494 69.888C363.918 69.384 363.198 69.132 362.334 69.132C361.47 69.132 360.762 69.372 360.21 69.852C359.658 70.308 359.298 70.992 359.13 71.904H365.358ZM382.502 57.36V84H375.446V57.36H382.502ZM397.428 69.672H394.26V84H387.168V69.672H384.972V63.804H387.168V63.624C387.168 61.032 387.924 59.052 389.436 57.684C390.972 56.292 393.168 55.596 396.024 55.596C396.6 55.596 397.044 55.608 397.356 55.632V61.644C397.164 61.62 396.9 61.608 396.564 61.608C395.796 61.608 395.232 61.788 394.872 62.148C394.512 62.484 394.308 63.036 394.26 63.804H397.428V69.672ZM407.654 56.748C410.27 56.748 412.37 57.42 413.954 58.764C415.538 60.108 416.33 62.028 416.33 64.524C416.33 66.708 415.598 68.436 414.134 69.708C412.694 70.98 410.786 71.64 408.41 71.688L408.23 74.316H402.002L401.786 67.152H404.378C406.01 67.152 407.258 66.972 408.122 66.612C408.986 66.228 409.418 65.556 409.418 64.596C409.418 63.948 409.238 63.444 408.878 63.084C408.542 62.7 408.074 62.508 407.474 62.508C406.802 62.508 406.286 62.712 405.926 63.12C405.59 63.504 405.422 64.032 405.422 64.704H398.762C398.714 63.24 399.014 61.908 399.662 60.708C400.334 59.484 401.342 58.524 402.686 57.828C404.03 57.108 405.686 56.748 407.654 56.748ZM405.17 84.288C403.922 84.288 402.914 83.952 402.146 83.28C401.402 82.584 401.03 81.708 401.03 80.652C401.03 79.596 401.402 78.72 402.146 78.024C402.914 77.328 403.922 76.98 405.17 76.98C406.394 76.98 407.378 77.328 408.122 78.024C408.89 78.72 409.274 79.596 409.274 80.652C409.274 81.684 408.89 82.548 408.122 83.244C407.378 83.94 406.394 84.288 405.17 84.288ZM37.764 112.62L31.536 138H22.86L19.368 122.448L15.804 138H7.128L0.972 112.62H8.604L11.556 129.972L15.552 112.62H23.292L27.18 129.828L30.132 112.62H37.764ZM60.0542 127.668C60.0542 128.22 60.0182 128.772 59.9462 129.324H46.5902C46.6622 130.428 46.9622 131.256 47.4902 131.808C48.0422 132.336 48.7382 132.6 49.5782 132.6C50.7542 132.6 51.5942 132.072 52.0982 131.016H59.6222C59.3102 132.408 58.6982 133.656 57.7862 134.76C56.8982 135.84 55.7702 136.692 54.4022 137.316C53.0342 137.94 51.5222 138.252 49.8662 138.252C47.8742 138.252 46.0982 137.832 44.5382 136.992C43.0022 136.152 41.7902 134.952 40.9022 133.392C40.0382 131.832 39.6062 129.996 39.6062 127.884C39.6062 125.772 40.0382 123.948 40.9022 122.412C41.7662 120.852 42.9662 119.652 44.5022 118.812C46.0622 117.972 47.8502 117.552 49.8662 117.552C51.8582 117.552 53.6222 117.96 55.1582 118.776C56.6942 119.592 57.8942 120.768 58.7582 122.304C59.6222 123.816 60.0542 125.604 60.0542 127.668ZM52.8542 125.904C52.8542 125.04 52.5662 124.368 51.9902 123.888C51.4142 123.384 50.6942 123.132 49.8302 123.132C48.9662 123.132 48.2582 123.372 47.7062 123.852C47.1542 124.308 46.7942 124.992 46.6262 125.904H52.8542ZM68.1258 109.128L67.6938 117.336H62.9418L62.4378 109.128H68.1258ZM78.7517 121.368C79.5437 120.216 80.5037 119.304 81.6317 118.632C82.7597 117.96 83.9717 117.624 85.2677 117.624V125.148H83.2877C81.7517 125.148 80.6117 125.448 79.8677 126.048C79.1237 126.648 78.7517 127.692 78.7517 129.18V138H71.6957V117.804H78.7517V121.368ZM107.093 127.668C107.093 128.22 107.057 128.772 106.985 129.324H93.6293C93.7013 130.428 94.0013 131.256 94.5293 131.808C95.0813 132.336 95.7773 132.6 96.6173 132.6C97.7933 132.6 98.6333 132.072 99.1373 131.016H106.661C106.349 132.408 105.737 133.656 104.825 134.76C103.937 135.84 102.809 136.692 101.441 137.316C100.073 137.94 98.5613 138.252 96.9053 138.252C94.9133 138.252 93.1373 137.832 91.5773 136.992C90.0413 136.152 88.8293 134.952 87.9413 133.392C87.0773 131.832 86.6453 129.996 86.6453 127.884C86.6453 125.772 87.0773 123.948 87.9413 122.412C88.8053 120.852 90.0053 119.652 91.5413 118.812C93.1013 117.972 94.8893 117.552 96.9053 117.552C98.8973 117.552 100.661 117.96 102.197 118.776C103.733 119.592 104.933 120.768 105.797 122.304C106.661 123.816 107.093 125.604 107.093 127.668ZM99.8933 125.904C99.8933 125.04 99.6053 124.368 99.0293 123.888C98.4533 123.384 97.7333 123.132 96.8693 123.132C96.0053 123.132 95.2973 123.372 94.7453 123.852C94.1933 124.308 93.8333 124.992 93.6653 125.904H99.8933ZM130.155 117.624C132.459 117.624 134.283 118.404 135.627 119.964C136.995 121.5 137.679 123.588 137.679 126.228V138H130.623V127.164C130.623 126.012 130.323 125.112 129.723 124.464C129.123 123.792 128.319 123.456 127.311 123.456C126.255 123.456 125.427 123.792 124.827 124.464C124.227 125.112 123.927 126.012 123.927 127.164V138H116.871V111.36H123.927V120.684C124.551 119.772 125.391 119.04 126.447 118.488C127.527 117.912 128.763 117.624 130.155 117.624ZM160.847 127.668C160.847 128.22 160.811 128.772 160.739 129.324H147.383C147.455 130.428 147.755 131.256 148.283 131.808C148.835 132.336 149.531 132.6 150.371 132.6C151.547 132.6 152.387 132.072 152.891 131.016H160.415C160.103 132.408 159.491 133.656 158.579 134.76C157.691 135.84 156.563 136.692 155.195 137.316C153.827 137.94 152.315 138.252 150.659 138.252C148.667 138.252 146.891 137.832 145.331 136.992C143.795 136.152 142.583 134.952 141.695 133.392C140.831 131.832 140.399 129.996 140.399 127.884C140.399 125.772 140.831 123.948 141.695 122.412C142.559 120.852 143.759 119.652 145.295 118.812C146.855 117.972 148.643 117.552 150.659 117.552C152.651 117.552 154.415 117.96 155.951 118.776C157.487 119.592 158.687 120.768 159.551 122.304C160.415 123.816 160.847 125.604 160.847 127.668ZM153.647 125.904C153.647 125.04 153.359 124.368 152.783 123.888C152.207 123.384 151.487 123.132 150.623 123.132C149.759 123.132 149.051 123.372 148.499 123.852C147.947 124.308 147.587 124.992 147.419 125.904H153.647ZM170.791 121.368C171.583 120.216 172.543 119.304 173.671 118.632C174.799 117.96 176.011 117.624 177.307 117.624V125.148H175.327C173.791 125.148 172.651 125.448 171.907 126.048C171.163 126.648 170.791 127.692 170.791 129.18V138H163.735V117.804H170.791V121.368ZM199.132 127.668C199.132 128.22 199.096 128.772 199.024 129.324H185.668C185.74 130.428 186.04 131.256 186.568 131.808C187.12 132.336 187.816 132.6 188.656 132.6C189.832 132.6 190.672 132.072 191.176 131.016H198.7C198.388 132.408 197.776 133.656 196.864 134.76C195.976 135.84 194.848 136.692 193.48 137.316C192.112 137.94 190.6 138.252 188.944 138.252C186.952 138.252 185.176 137.832 183.616 136.992C182.08 136.152 180.868 134.952 179.98 133.392C179.116 131.832 178.684 129.996 178.684 127.884C178.684 125.772 179.116 123.948 179.98 122.412C180.844 120.852 182.044 119.652 183.58 118.812C185.14 117.972 186.928 117.552 188.944 117.552C190.936 117.552 192.7 117.96 194.236 118.776C195.772 119.592 196.972 120.768 197.836 122.304C198.7 123.816 199.132 125.604 199.132 127.668ZM191.932 125.904C191.932 125.04 191.644 124.368 191.068 123.888C190.492 123.384 189.772 123.132 188.908 123.132C188.044 123.132 187.336 123.372 186.784 123.852C186.232 124.308 185.872 124.992 185.704 125.904H191.932ZM220.827 131.988V138H217.767C212.607 138 210.027 135.444 210.027 130.332V123.672H207.543V117.804H210.027V112.908H217.119V117.804H220.791V123.672H217.119V130.44C217.119 130.992 217.239 131.388 217.479 131.628C217.743 131.868 218.175 131.988 218.775 131.988H220.827ZM233.459 138.252C231.443 138.252 229.631 137.832 228.023 136.992C226.439 136.152 225.191 134.952 224.279 133.392C223.367 131.832 222.911 129.996 222.911 127.884C222.911 125.796 223.367 123.972 224.279 122.412C225.215 120.852 226.475 119.652 228.059 118.812C229.667 117.972 231.479 117.552 233.495 117.552C235.511 117.552 237.311 117.972 238.895 118.812C240.503 119.652 241.763 120.852 242.675 122.412C243.611 123.972 244.079 125.796 244.079 127.884C244.079 129.972 243.611 131.808 242.675 133.392C241.763 134.952 240.503 136.152 238.895 136.992C237.287 137.832 235.475 138.252 233.459 138.252ZM233.459 132.132C234.443 132.132 235.259 131.772 235.907 131.052C236.579 130.308 236.915 129.252 236.915 127.884C236.915 126.516 236.579 125.472 235.907 124.752C235.259 124.032 234.455 123.672 233.495 123.672C232.535 123.672 231.731 124.032 231.083 124.752C230.435 125.472 230.111 126.516 230.111 127.884C230.111 129.276 230.423 130.332 231.047 131.052C231.671 131.772 232.475 132.132 233.459 132.132ZM267.124 117.624C269.428 117.624 271.252 118.404 272.596 119.964C273.964 121.5 274.648 123.588 274.648 126.228V138H267.592V127.164C267.592 126.012 267.292 125.112 266.692 124.464C266.092 123.792 265.288 123.456 264.28 123.456C263.224 123.456 262.396 123.792 261.796 124.464C261.196 125.112 260.896 126.012 260.896 127.164V138H253.84V111.36H260.896V120.684C261.52 119.772 262.36 119.04 263.416 118.488C264.496 117.912 265.732 117.624 267.124 117.624ZM297.816 127.668C297.816 128.22 297.78 128.772 297.708 129.324H284.352C284.424 130.428 284.724 131.256 285.252 131.808C285.804 132.336 286.5 132.6 287.34 132.6C288.516 132.6 289.356 132.072 289.86 131.016H297.384C297.072 132.408 296.46 133.656 295.548 134.76C294.66 135.84 293.532 136.692 292.164 137.316C290.796 137.94 289.284 138.252 287.628 138.252C285.636 138.252 283.86 137.832 282.3 136.992C280.764 136.152 279.552 134.952 278.664 133.392C277.8 131.832 277.368 129.996 277.368 127.884C277.368 125.772 277.8 123.948 278.664 122.412C279.528 120.852 280.728 119.652 282.264 118.812C283.824 117.972 285.612 117.552 287.628 117.552C289.62 117.552 291.384 117.96 292.92 118.776C294.456 119.592 295.656 120.768 296.52 122.304C297.384 123.816 297.816 125.604 297.816 127.668ZM290.616 125.904C290.616 125.04 290.328 124.368 289.752 123.888C289.176 123.384 288.456 123.132 287.592 123.132C286.728 123.132 286.02 123.372 285.468 123.852C284.916 124.308 284.556 124.992 284.388 125.904H290.616ZM307.76 111.36V138H300.704V111.36H307.76ZM318.834 120.612C319.386 119.676 320.166 118.932 321.174 118.38C322.182 117.828 323.37 117.552 324.738 117.552C326.346 117.552 327.798 117.972 329.094 118.812C330.414 119.652 331.446 120.852 332.19 122.412C332.958 123.972 333.342 125.796 333.342 127.884C333.342 129.972 332.958 131.808 332.19 133.392C331.446 134.952 330.414 136.152 329.094 136.992C327.798 137.832 326.346 138.252 324.738 138.252C323.37 138.252 322.182 137.976 321.174 137.424C320.19 136.872 319.41 136.128 318.834 135.192V147.648H311.778V117.804H318.834V120.612ZM326.178 127.884C326.178 126.564 325.818 125.544 325.098 124.824C324.402 124.08 323.538 123.708 322.506 123.708C321.474 123.708 320.598 124.08 319.878 124.824C319.182 125.568 318.834 126.588 318.834 127.884C318.834 129.204 319.182 130.236 319.878 130.98C320.598 131.724 321.474 132.096 322.506 132.096C323.538 132.096 324.402 131.724 325.098 130.98C325.818 130.212 326.178 129.18 326.178 127.884ZM339.666 138.288C338.418 138.288 337.41 137.952 336.642 137.28C335.898 136.584 335.526 135.708 335.526 134.652C335.526 133.596 335.898 132.72 336.642 132.024C337.41 131.328 338.418 130.98 339.666 130.98C340.89 130.98 341.874 131.328 342.618 132.024C343.386 132.72 343.77 133.596 343.77 134.652C343.77 135.684 343.386 136.548 342.618 137.244C341.874 137.94 340.89 138.288 339.666 138.288Z" fill="black"/>
</svg>
